<?xml version="1.0" encoding="utf-8"?>
<!-- Generator: Adobe Illustrator 25.0.0, SVG Export Plug-In . SVG Version: 6.00 Build 0)  -->
<svg version="1.1" id="Layer_1" xmlns="http://www.w3.org/2000/svg" xmlns:xlink="http://www.w3.org/1999/xlink" x="0px" y="0px"
	 viewBox="0 0 1001.8 246.8" style="enable-background:new 0 0 1001.8 246.8;" xml:space="preserve">
<style type="text/css">
	.st0{fill:#F77D2B;}
</style>
<path class="st0" d="M402.3,161.1l-17-29.6H376v29.6h-12.1V87.2h25.5c5-0.1,9.9,0.9,14.4,3c3.7,1.7,6.7,4.5,8.8,8
	c2,3.4,3,7.2,2.9,11.2c0,4.7-1.4,9.3-4.2,13.1c-2.8,3.9-7.1,6.6-12.9,8l18.3,30.6L402.3,161.1z M376,121.9h13.4
	c4.5,0,8-1.1,10.3-3.4c2.4-2.4,3.6-5.8,3.5-9.2c0-3.8-1.1-6.8-3.4-9s-5.7-3.3-10.3-3.2H376V121.9z"/>
<path class="st0" d="M443.2,97v21.7h25.5v9.9h-25.5v22.6h28.7v9.9h-40.8v-74h40.8V97H443.2z"/>
<path class="st0" d="M531.3,146h-30.9l-5.3,15.1h-12.6l26.5-74h14l26.5,74h-12.7L531.3,146z M527.9,136.1l-12-34.3l-12.1,34.3H527.9
	z"/>
<path class="st0" d="M573,151.3h25v9.8h-37.1V87.2H573V151.3z"/>
<path class="st0" d="M647.4,101.1v15.1h24.3v14h-24.3v16.4h27.5v14.6h-45.7V86.5h45.7V101L647.4,101.1z"/>
<path class="st0" d="M699.1,159.2c-4.1-1.6-7.7-4.3-10.4-7.9c-2.6-3.7-4.1-8-4.1-12.6H704c0.1,2.4,1.1,4.7,2.9,6.3
	c1.8,1.5,4.1,2.3,6.4,2.2c2.3,0.1,4.5-0.5,6.4-1.9c1.6-1.2,2.4-3.2,2.3-5.2c0-1.7-0.6-3.4-1.9-4.6c-1.3-1.3-2.9-2.3-4.6-3
	c-2.5-1-5.1-1.9-7.7-2.6c-4-1.2-8-2.7-11.8-4.5c-3.1-1.5-5.8-3.8-7.9-6.6c-2.2-2.9-3.3-6.7-3.3-11.4c0-6.9,2.5-12.4,7.5-16.3
	s11.6-5.9,19.7-5.9c8.2,0,14.8,2,19.9,5.9s7.7,9.4,8,16.5h-19.7c0-2.2-1-4.3-2.7-5.7c-1.8-1.4-4-2.2-6.3-2.1
	c-1.9-0.1-3.8,0.5-5.3,1.8c-1.4,1.3-2.1,3.2-2,5.1c0,2.4,1.3,4.6,3.4,5.6c3.4,1.8,6.9,3.3,10.6,4.4c4,1.3,7.9,2.9,11.8,4.7
	c3.1,1.5,5.7,3.8,7.8,6.5c2.2,2.8,3.3,6.5,3.3,11c0,4.1-1.1,8.1-3.2,11.6c-2.3,3.6-5.6,6.5-9.4,8.3c-4.5,2.2-9.5,3.2-14.6,3.1
	C708.7,162,703.8,161.1,699.1,159.2z"/>
<path class="st0" d="M805.8,86.5V101H786v60.1h-18.1v-60.1h-19.8V86.5H805.8z"/>
<path class="st0" d="M861.4,147.9h-27.9l-4.5,13.2h-19l27-74.6h21l27,74.6h-19.2L861.4,147.9z M856.7,133.9l-9.2-27.3l-9.2,27.3
	H856.7z"/>
<path class="st0" d="M947,86.5V101h-19.8v60.1H909v-60.1h-19.7V86.5H947z"/>
<path class="st0" d="M974.3,101.1v15.1h24.3v14h-24.3v16.4h27.5v14.6h-45.7V86.5h45.7V101L974.3,101.1z"/>
<path class="st0" d="M389.2,224.5h-16.4l-3.1,8.5h-3.8l13.1-35.5h4.1l13.1,35.5h-3.8L389.2,224.5z M388.2,221.5l-7.1-19.5l-7.1,19.5
	L388.2,221.5z"/>
<path class="st0" d="M446.7,197v36h-3.6v-16.8h-19.5V233H420v-36h3.6v16.2h19.5V197H446.7z"/>
<path class="st0" d="M456.9,198.8c-0.5-0.5-0.8-1.2-0.8-1.9c0-0.7,0.3-1.4,0.8-1.9c0.5-0.5,1.2-0.8,1.9-0.8c1.4,0,2.6,1.1,2.6,2.6
	c0,0,0,0,0,0.1c0,0.7-0.3,1.4-0.8,1.9c-0.5,0.5-1.2,0.8-1.9,0.8C458,199.6,457.3,199.3,456.9,198.8z M460.5,204.9V233h-3.6v-28.1
	L460.5,204.9z"/>
<path class="st0" d="M489.3,206.3c1.8,1.1,3.3,2.7,4.2,4.7v-6.1h3.6v28.8c0,2.4-0.5,4.8-1.7,6.9c-1.1,2-2.7,3.6-4.7,4.6
	c-2.1,1.1-4.4,1.7-6.8,1.6c-3.2,0.1-6.4-0.8-9-2.6c-2.3-1.7-3.9-4.2-4.5-7h3.5c0.6,1.9,1.8,3.6,3.5,4.7c1.9,1.2,4.1,1.8,6.4,1.8
	c1.7,0,3.4-0.4,4.9-1.2c1.4-0.8,2.6-2,3.4-3.4c0.9-1.7,1.3-3.5,1.2-5.4v-6.9c-0.9,2-2.4,3.6-4.2,4.8c-2.1,1.3-4.4,1.9-6.9,1.9
	c-2.4,0-4.8-0.6-6.9-1.8c-2-1.2-3.7-3-4.8-5.1c-1.2-2.4-1.8-5-1.7-7.6c-0.1-2.6,0.5-5.2,1.7-7.6c1.1-2.1,2.7-3.8,4.8-5
	c2.1-1.2,4.5-1.8,6.9-1.8C484.9,204.5,487.3,205.1,489.3,206.3z M492.2,213c-0.9-1.7-2.2-3-3.8-4c-1.6-0.9-3.4-1.4-5.3-1.4
	c-1.9,0-3.7,0.4-5.4,1.3c-1.6,0.9-2.9,2.3-3.7,3.9c-0.9,1.9-1.4,3.9-1.4,6c0,2.1,0.4,4.1,1.4,6c0.8,1.7,2.1,3.1,3.7,4
	c1.6,0.9,3.5,1.4,5.4,1.4c1.9,0,3.7-0.5,5.3-1.4c1.6-0.9,2.9-2.3,3.8-4c1.9-3.8,1.9-8.2,0-11.9V213z"/>
<path class="st0" d="M526.5,205.7c1.7,0.9,3.1,2.3,4,4.1c1,2.1,1.5,4.4,1.5,6.7V233h-3.5v-16c0-3.1-0.8-5.4-2.3-7
	c-1.6-1.7-3.9-2.5-6.3-2.4c-2.4-0.1-4.8,0.8-6.5,2.6c-1.6,1.7-2.4,4.2-2.4,7.6V233h-3.6v-38.1h3.7v14.8c0.9-1.7,2.3-3,3.9-3.9
	C518.6,203.9,522.9,203.9,526.5,205.7L526.5,205.7z"/>
<path class="st0" d="M567.2,220.4h-23.3c0,1.9,0.6,3.8,1.5,5.4c0.9,1.5,2.1,2.7,3.7,3.4c1.5,0.8,3.2,1.2,5,1.2
	c2.1,0.1,4.2-0.5,5.9-1.7c1.6-1.1,2.7-2.7,3.2-4.6h3.8c-0.7,2.7-2.2,5-4.4,6.7c-2.4,1.8-5.4,2.7-8.5,2.6c-2.5,0-4.9-0.6-7.1-1.8
	c-2.1-1.2-3.8-2.9-5-5.1c-1.2-2.4-1.8-5-1.8-7.6c-0.1-2.7,0.5-5.3,1.8-7.7c1.1-2.1,2.8-3.8,4.9-5c2.2-1.2,4.7-1.8,7.2-1.8
	c2.4-0.1,4.9,0.6,7,1.8c2,1.1,3.6,2.7,4.6,4.7c1.1,2,1.6,4.3,1.6,6.6C567.3,218.8,567.3,219.7,567.2,220.4z M562.4,212.1
	c-0.8-1.4-2.1-2.6-3.6-3.4c-1.5-0.8-3.2-1.1-4.9-1.1c-2.5-0.1-5,0.9-6.8,2.6c-2,1.9-3.1,4.5-3.1,7.3h19.8
	C563.8,215.5,563.3,213.7,562.4,212.1L562.4,212.1z"/>
<path class="st0" d="M583.1,205.8c1.8-1,3.9-1.5,6-1.4v3.8h-1c-2.3-0.1-4.5,0.6-6.3,2.1c-1.6,1.4-2.4,3.8-2.4,7.1V233h-3.6v-28.1
	h3.6v5C580.2,208.2,581.5,206.8,583.1,205.8z"/>
<path class="st0" d="M632,197v3h-15.8v13.4h13.4v3h-13.4V233h-3.6v-36H632z"/>
<path class="st0" d="M645.1,231.6c-2.1-1.2-3.8-2.9-5-5.1c-1.3-2.3-1.9-5-1.8-7.6c-0.1-2.7,0.6-5.3,1.9-7.6c1.2-2.1,2.9-3.8,5-5
	c4.5-2.4,9.9-2.4,14.3,0c2.1,1.2,3.8,2.9,5,5c1.3,2.3,1.9,5,1.8,7.6c0.1,2.7-0.6,5.3-1.9,7.6c-1.2,2.1-2.9,3.9-5.1,5.1
	c-2.2,1.2-4.7,1.8-7.2,1.8C649.6,233.4,647.2,232.8,645.1,231.6z M657.3,229c1.6-0.9,2.9-2.2,3.8-3.8c1-1.9,1.5-4.1,1.5-6.2
	c0.1-2.2-0.4-4.3-1.4-6.3c-0.9-1.6-2.2-2.9-3.8-3.8c-3.2-1.7-7.1-1.7-10.3,0c-1.6,0.9-2.9,2.2-3.8,3.8c-1.9,4-1.9,8.6,0,12.5
	c0.9,1.6,2.2,2.9,3.8,3.8c1.6,0.8,3.3,1.3,5.1,1.3C654,230.3,655.8,229.8,657.3,229z"/>
<path class="st0" d="M682.1,205.8c1.8-1,3.9-1.5,6-1.4v3.8h-1c-2.3-0.1-4.5,0.6-6.3,2.1c-1.6,1.4-2.4,3.8-2.4,7.1V233h-3.6v-28.1
	h3.6v5C679.2,208.2,680.5,206.8,682.1,205.8z"/>
<path class="st0" d="M737,207.5c2.1,2.1,3.1,5.1,3.1,9V233h-3.5v-16c0-3.1-0.7-5.4-2.2-7c-1.6-1.6-3.7-2.5-6-2.4
	c-2.4-0.1-4.7,0.9-6.3,2.6c-1.6,1.8-2.4,4.3-2.4,7.6V233h-3.5v-16c0-3.1-0.7-5.4-2.2-7c-1.6-1.7-3.8-2.5-6.1-2.4
	c-2.4-0.1-4.7,0.9-6.3,2.6c-1.6,1.8-2.4,4.3-2.4,7.6V233h-3.6v-28.1h3.6v4.8c0.8-1.7,2.2-3.1,3.8-4c1.7-0.9,3.6-1.4,5.5-1.4
	c2.3-0.1,4.5,0.6,6.4,1.8c1.9,1.2,3.3,3,4,5.1c0.7-2.1,2-3.9,3.9-5.1c1.9-1.2,4-1.8,6.2-1.8C732,204.3,734.9,205.4,737,207.5z"/>
<path class="st0" d="M771.3,231.6c-2.1-1.2-3.8-2.9-5-5.1c-1.3-2.3-1.9-5-1.8-7.6c-0.1-2.7,0.6-5.3,1.9-7.6c1.2-2.1,2.9-3.8,5-5
	c4.5-2.4,9.9-2.4,14.3,0c2.1,1.2,3.8,2.9,5,5c1.3,2.3,1.9,5,1.8,7.6c0.1,2.7-0.6,5.3-1.9,7.6c-1.2,2.1-2.9,3.9-5.1,5.1
	c-2.2,1.2-4.7,1.8-7.2,1.8C775.9,233.4,773.5,232.8,771.3,231.6z M783.6,229c1.6-0.9,2.9-2.2,3.8-3.8c1-1.9,1.5-4.1,1.5-6.2
	c0.1-2.2-0.4-4.3-1.4-6.3c-0.9-1.6-2.2-2.9-3.8-3.8c-3.2-1.7-7.1-1.7-10.3,0c-1.6,0.9-2.9,2.2-3.8,3.8c-1.9,4-1.9,8.6,0,12.5
	c0.9,1.6,2.2,2.9,3.8,3.8c1.6,0.8,3.3,1.3,5.1,1.3C780.2,230.3,782,229.8,783.6,229z"/>
<path class="st0" d="M812.2,207.9h-6.5V233h-3.6v-25.1h-3.9v-3h3.9v-2c0-3.1,0.8-5.3,2.3-6.8s4.1-2.2,7.6-2.2v3.1
	c-2.3,0-4,0.4-4.9,1.3s-1.4,2.4-1.4,4.5v2h6.5L812.2,207.9z"/>
<path class="st0" d="M855,233l-8.9-15h-6.6v15h-3.6v-36h10.9c4,0,7,1,9.1,2.9c2.1,2,3.2,4.7,3.1,7.6c0.1,2.4-0.7,4.8-2.2,6.7
	c-1.7,2-4.1,3.2-6.6,3.6l9.3,15.3H855z M839.5,215h7.3c2.8,0,4.9-0.7,6.4-2c1.5-1.5,2.2-3.5,2.1-5.5c0.1-2-0.6-4-2-5.5
	c-1.4-1.3-3.5-1.9-6.5-1.9h-7.2L839.5,215z"/>
<path class="st0" d="M893.4,220.4h-23.3c0,1.9,0.6,3.8,1.5,5.4c0.9,1.5,2.1,2.7,3.7,3.4c1.5,0.8,3.2,1.2,4.9,1.2
	c2.1,0.1,4.2-0.5,5.9-1.7c1.6-1.1,2.7-2.7,3.2-4.6h3.8c-0.6,2.7-2.2,5.1-4.4,6.7c-2.4,1.8-5.4,2.7-8.5,2.6c-2.5,0-4.9-0.6-7.1-1.8
	c-2.1-1.2-3.8-2.9-4.9-5.1c-1.2-2.4-1.8-5-1.8-7.6c-0.1-2.7,0.5-5.3,1.8-7.7c1.1-2.1,2.8-3.9,4.9-5c2.2-1.2,4.7-1.8,7.2-1.8
	c2.4-0.1,4.9,0.6,7,1.8c1.9,1.1,3.6,2.7,4.6,4.7c1.1,2,1.7,4.3,1.6,6.6C893.5,218.5,893.5,219.4,893.4,220.4z M888.6,212.1
	c-0.8-1.4-2.1-2.6-3.6-3.4c-1.5-0.8-3.2-1.1-4.9-1.1c-2.5-0.1-5,0.9-6.8,2.6c-2,1.9-3.1,4.5-3.1,7.3h19.8
	C889.9,215.5,889.5,213.7,888.6,212.1L888.6,212.1z"/>
<path class="st0" d="M902.1,211.3c1.1-2.1,2.7-3.8,4.8-5c2.1-1.2,4.5-1.8,6.9-1.8c2.4-0.1,4.8,0.6,6.9,1.9c1.8,1.1,3.3,2.8,4.2,4.7
	v-6.2h3.6V233H925v-6.2c-0.9,2-2.4,3.6-4.2,4.8c-2.1,1.3-4.5,1.9-6.9,1.9c-2.4,0-4.8-0.6-6.9-1.8c-2-1.2-3.7-3-4.8-5.1
	c-1.2-2.4-1.8-5-1.7-7.6C900.4,216.3,900.9,213.7,902.1,211.3z M923.6,213c-0.9-1.7-2.2-3.1-3.8-4c-1.6-0.9-3.4-1.4-5.3-1.4
	c-1.9,0-3.7,0.4-5.3,1.3c-1.6,0.9-2.9,2.3-3.7,3.9c-0.9,1.9-1.4,3.9-1.4,6c0,2.1,0.4,4.1,1.4,6c0.8,1.7,2.1,3.1,3.7,4
	c1.6,0.9,3.5,1.4,5.3,1.4c1.9,0,3.7-0.5,5.3-1.4c1.6-0.9,2.9-2.3,3.8-4c1.9-3.8,1.9-8.2,0-11.9V213z"/>
<path class="st0" d="M942.4,194.9V233h-3.6v-38.1L942.4,194.9z"/>
<path class="st0" d="M957.2,207.9v17.4c0,1.7,0.3,2.9,1,3.6c1,0.8,2.2,1.1,3.5,1h3.3v3.1h-3.9c-2.5,0-4.4-0.6-5.7-1.8
	s-1.8-3.1-1.8-5.9v-17.4h-3.9v-3h3.9v-7.1h3.7v7.1h7.7v3H957.2z"/>
<path class="st0" d="M996,204.9l-16.7,41.3h-3.8l5.4-13.4l-11.5-28h4l9.6,24l9.3-24L996,204.9z"/>
<polygon class="st0" points="414.2,55.3 336,55.3 194.1,160.7 194.1,241 151.3,241 151.3,135.6 223.5,82.9 184.7,57.4 42.8,160.7 
	42.8,241 0,241 0,135.6 185.7,0 260.5,55.8 337,0 "/>
</svg>
