<svg id="Layer_1" data-name="Layer 1" xmlns="http://www.w3.org/2000/svg" viewBox="0 0 1001.85 246.81"><defs><style>.cls-1{fill:#fdfeff;}</style></defs><path class="cls-1" d="M402.26,161.12l-17-29.56H376v29.56H363.88V87.23h25.51a31.66,31.66,0,0,1,14.41,3,20.64,20.64,0,0,1,8.82,8,21.68,21.68,0,0,1,2.93,11.16,22.11,22.11,0,0,1-4.2,13.13q-4.2,5.91-12.92,8l18.29,30.62ZM376,121.89h13.39q6.81,0,10.26-3.4a12.24,12.24,0,0,0,3.46-9.15q0-5.73-3.4-9t-10.32-3.24H376Z"/><path class="cls-1" d="M443.19,97V118.7H468.7v9.89H443.19v22.64h28.7v9.89H431.07v-74h40.82V97Z"/><path class="cls-1" d="M531.32,146H500.38l-5.31,15.1H482.42l26.47-74h14l26.47,74H536.63Zm-3.4-9.89-12-34.33-12.12,34.33Z"/><path class="cls-1" d="M573,151.34h25v9.78H560.87V87.23H573Z"/><path class="cls-1" d="M647.41,101.05v15.1h24.34v14H647.41v16.37h27.53v14.57H629.23V86.49h45.71v14.56Z"/><path class="cls-1" d="M699.08,159.2a23.9,23.9,0,0,1-10.37-7.86,21.47,21.47,0,0,1-4.09-12.55H704a9.37,9.37,0,0,0,2.87,6.33,9.23,9.23,0,0,0,6.38,2.18,10,10,0,0,0,6.38-1.86,6.25,6.25,0,0,0,2.34-5.16,6.12,6.12,0,0,0-1.87-4.57,15.07,15.07,0,0,0-4.57-3,72,72,0,0,0-7.71-2.65,83.94,83.94,0,0,1-11.8-4.47,21.76,21.76,0,0,1-7.86-6.59q-3.3-4.36-3.3-11.38,0-10.41,7.55-16.32t19.67-5.9q12.33,0,19.88,5.9T740,107.75H720.34a7.69,7.69,0,0,0-2.66-5.69,9.37,9.37,0,0,0-6.27-2.07,7.83,7.83,0,0,0-5.32,1.75,6.36,6.36,0,0,0-2,5.05,6.28,6.28,0,0,0,3.41,5.64,56,56,0,0,0,10.63,4.36,98.72,98.72,0,0,1,11.75,4.67,22.38,22.38,0,0,1,7.81,6.49c2.19,2.83,3.3,6.48,3.3,11a21.54,21.54,0,0,1-3.25,11.59,22.75,22.75,0,0,1-9.41,8.29,32.12,32.12,0,0,1-14.56,3.08A38.21,38.21,0,0,1,699.08,159.2Z"/><path class="cls-1" d="M805.81,86.49v14.56H786v60.07H767.86V101.05H748.08V86.49Z"/><path class="cls-1" d="M861.42,147.94H833.56l-4.46,13.18h-19l27-74.63h21l27,74.63H865.88Zm-4.68-14-9.25-27.32-9.15,27.32Z"/><path class="cls-1" d="M947,86.49v14.56H927.22v60.07H909V101.05H889.27V86.49Z"/><path class="cls-1" d="M974.32,101.05v15.1h24.34v14H974.32v16.37h27.53v14.57H956.14V86.49h45.71v14.56Z"/><path class="cls-1" d="M389.25,224.47H372.88L369.74,233h-3.81l13.13-35.52h4.07L396.2,233h-3.81Zm-1.08-3L381.07,202,374,221.48Z"/><path class="cls-1" d="M446.71,197v36h-3.6V216.18H423.59V233H420V197h3.6v16.17h19.52V197Z"/><path class="cls-1" d="M456.85,198.83a2.62,2.62,0,0,1-.77-1.91,2.53,2.53,0,0,1,.77-1.88,2.59,2.59,0,0,1,1.86-.75,2.6,2.6,0,0,1,2.62,2.63,2.62,2.62,0,0,1-.77,1.91,2.53,2.53,0,0,1-1.85.77A2.57,2.57,0,0,1,456.85,198.83Zm3.66,6.07V233h-3.6V204.9Z"/><path class="cls-1" d="M489.34,206.34a10.82,10.82,0,0,1,4.22,4.69V204.9h3.61v28.83a13.72,13.72,0,0,1-1.68,6.85,11.55,11.55,0,0,1-4.66,4.61,14,14,0,0,1-6.79,1.62,15,15,0,0,1-9-2.57,10.93,10.93,0,0,1-4.45-7h3.55a8.69,8.69,0,0,0,3.53,4.69,11.09,11.09,0,0,0,6.36,1.75,10.21,10.21,0,0,0,4.89-1.16,8.3,8.3,0,0,0,3.4-3.42,11.08,11.08,0,0,0,1.23-5.36v-6.95a11.29,11.29,0,0,1-4.25,4.77,12.4,12.4,0,0,1-6.87,1.87,13.4,13.4,0,0,1-6.92-1.8,12.46,12.46,0,0,1-4.79-5.09,16.21,16.21,0,0,1-1.73-7.62,16,16,0,0,1,1.73-7.6,12.26,12.26,0,0,1,4.79-5,13.48,13.48,0,0,1,6.92-1.78A12.71,12.71,0,0,1,489.34,206.34Zm2.83,6.65a10,10,0,0,0-3.78-4,10.31,10.31,0,0,0-5.28-1.39,10.68,10.68,0,0,0-5.35,1.34,9.49,9.49,0,0,0-3.74,3.89,12.6,12.6,0,0,0-1.36,6,12.78,12.78,0,0,0,1.36,6,9.58,9.58,0,0,0,3.74,4,10.49,10.49,0,0,0,5.35,1.36,10.31,10.31,0,0,0,5.28-1.39,9.89,9.89,0,0,0,3.78-4,13.52,13.52,0,0,0,0-11.94Z"/><path class="cls-1" d="M526.49,205.73a9.55,9.55,0,0,1,4,4.09,14.11,14.11,0,0,1,1.47,6.72V233h-3.55V217c0-3.06-.77-5.39-2.29-7a8.2,8.2,0,0,0-6.26-2.42,8.52,8.52,0,0,0-6.49,2.57q-2.42,2.58-2.42,7.57V233h-3.6v-38.1H511v14.78a9.35,9.35,0,0,1,3.94-3.91,13,13,0,0,1,11.59-.05Z"/><path class="cls-1" d="M567.24,220.35H543.91a11.32,11.32,0,0,0,1.55,5.45,9,9,0,0,0,3.65,3.43,10.74,10.74,0,0,0,4.95,1.16,10,10,0,0,0,5.89-1.7,8,8,0,0,0,3.17-4.58h3.81a12,12,0,0,1-4.4,6.71,13.44,13.44,0,0,1-8.47,2.6,14.21,14.21,0,0,1-7.11-1.77A12.66,12.66,0,0,1,542,226.6a15.82,15.82,0,0,1-1.77-7.64,16,16,0,0,1,1.75-7.67,12.15,12.15,0,0,1,4.89-5,14.41,14.41,0,0,1,7.16-1.75,13.67,13.67,0,0,1,7,1.75,12.13,12.13,0,0,1,4.64,4.71,13.47,13.47,0,0,1,1.62,6.57C567.34,218.75,567.3,219.7,567.24,220.35Zm-4.82-8.29a8.5,8.5,0,0,0-3.58-3.35,10.93,10.93,0,0,0-4.94-1.13,9.85,9.85,0,0,0-6.85,2.57,10.35,10.35,0,0,0-3.14,7.26h19.77A9.87,9.87,0,0,0,562.42,212.06Z"/><path class="cls-1" d="M583.12,205.83a11.64,11.64,0,0,1,6-1.44v3.76h-1a9.07,9.07,0,0,0-6.28,2.11q-2.37,2.1-2.37,7.05V233h-3.6V204.9h3.6v5A8.82,8.82,0,0,1,583.12,205.83Z"/><path class="cls-1" d="M632,197v3H616.15v13.44h13.38v3H616.15V233h-3.61V197Z"/><path class="cls-1" d="M645.06,231.65a12.92,12.92,0,0,1-5-5.05,15.4,15.4,0,0,1-1.83-7.64,15.21,15.21,0,0,1,1.86-7.65,12.92,12.92,0,0,1,5-5,15.33,15.33,0,0,1,14.34,0,12.69,12.69,0,0,1,5,5,15.41,15.41,0,0,1,1.83,7.65,15.25,15.25,0,0,1-1.86,7.62,12.86,12.86,0,0,1-5.09,5.07,14.84,14.84,0,0,1-7.21,1.77A14.34,14.34,0,0,1,645.06,231.65ZM657.34,229a9.67,9.67,0,0,0,3.83-3.81,12.33,12.33,0,0,0,1.47-6.25,12.57,12.57,0,0,0-1.44-6.26,9.44,9.44,0,0,0-3.81-3.81,11.15,11.15,0,0,0-10.3,0,9.25,9.25,0,0,0-3.78,3.81,14.49,14.49,0,0,0,0,12.51,9.31,9.31,0,0,0,3.75,3.81,10.68,10.68,0,0,0,5.13,1.26A10.81,10.81,0,0,0,657.34,229Z"/><path class="cls-1" d="M682.13,205.83a11.6,11.6,0,0,1,6-1.44v3.76h-1a9.05,9.05,0,0,0-6.28,2.11c-1.59,1.4-2.37,3.75-2.37,7.05V233h-3.61V204.9h3.61v5A8.71,8.71,0,0,1,682.13,205.83Z"/><path class="cls-1" d="M737,207.5q3.12,3.12,3.11,9V233h-3.55V217q0-4.59-2.21-7a7.76,7.76,0,0,0-6-2.42,8.11,8.11,0,0,0-6.33,2.62q-2.37,2.63-2.37,7.62V233h-3.55V217q0-4.59-2.21-7a7.81,7.81,0,0,0-6.08-2.42,8.11,8.11,0,0,0-6.33,2.62q-2.37,2.63-2.37,7.62V233h-3.6V204.9h3.6v4.84a9.19,9.19,0,0,1,3.81-4,11.2,11.2,0,0,1,5.51-1.36,11.67,11.67,0,0,1,6.41,1.75,9.84,9.84,0,0,1,4,5.15,9.47,9.47,0,0,1,3.89-5.13,11.3,11.3,0,0,1,6.25-1.77A10.89,10.89,0,0,1,737,207.5Z"/><path class="cls-1" d="M771.3,231.65a12.92,12.92,0,0,1-5-5.05,15.4,15.4,0,0,1-1.83-7.64,15.21,15.21,0,0,1,1.86-7.65,12.86,12.86,0,0,1,5-5,15.33,15.33,0,0,1,14.34,0,12.69,12.69,0,0,1,5,5,15.41,15.41,0,0,1,1.83,7.65,15.25,15.25,0,0,1-1.86,7.62,12.86,12.86,0,0,1-5.09,5.07,14.84,14.84,0,0,1-7.21,1.77A14.34,14.34,0,0,1,771.3,231.65ZM783.58,229a9.67,9.67,0,0,0,3.83-3.81,12.33,12.33,0,0,0,1.47-6.25,12.57,12.57,0,0,0-1.44-6.26,9.44,9.44,0,0,0-3.81-3.81,11.15,11.15,0,0,0-10.3,0,9.25,9.25,0,0,0-3.78,3.81,14.49,14.49,0,0,0,0,12.51A9.31,9.31,0,0,0,773.3,229a10.68,10.68,0,0,0,5.13,1.26A10.81,10.81,0,0,0,783.58,229Z"/><path class="cls-1" d="M812.2,207.94h-6.53V233h-3.61V207.94h-3.91v-3h3.91v-2q0-4.59,2.34-6.75c1.56-1.44,4.1-2.16,7.6-2.16v3.09c-2.34,0-4,.44-4.92,1.34s-1.41,2.38-1.41,4.48v2h6.53Z"/><path class="cls-1" d="M855,233l-8.91-15h-6.64v15h-3.61V197H846.7q6,0,9.14,2.89a9.84,9.84,0,0,1,3.11,7.57,10.23,10.23,0,0,1-2.24,6.66,10.7,10.7,0,0,1-6.62,3.58L859.36,233Zm-15.55-18h7.26q4.21,0,6.36-2a7.32,7.32,0,0,0,2.13-5.51,7.17,7.17,0,0,0-2-5.49c-1.38-1.28-3.54-1.93-6.49-1.93h-7.21Z"/><path class="cls-1" d="M893.39,220.35H870.07a11.21,11.21,0,0,0,1.55,5.45,9,9,0,0,0,3.65,3.43,10.73,10.73,0,0,0,4.94,1.16,10,10,0,0,0,5.9-1.7,8,8,0,0,0,3.17-4.58h3.8a11.85,11.85,0,0,1-4.4,6.71,13.42,13.42,0,0,1-8.47,2.6,14.2,14.2,0,0,1-7.1-1.77,12.66,12.66,0,0,1-4.92-5.05,15.82,15.82,0,0,1-1.77-7.64,16,16,0,0,1,1.75-7.67,12.09,12.09,0,0,1,4.89-5,14.4,14.4,0,0,1,7.15-1.75,13.71,13.71,0,0,1,7,1.75,12.11,12.11,0,0,1,4.63,4.71,13.36,13.36,0,0,1,1.63,6.57A28.26,28.26,0,0,1,893.39,220.35Zm-4.81-8.29a8.5,8.5,0,0,0-3.58-3.35,11,11,0,0,0-4.94-1.13,9.85,9.85,0,0,0-6.85,2.57,10.3,10.3,0,0,0-3.14,7.26h19.77A10,10,0,0,0,888.58,212.06Z"/><path class="cls-1" d="M902.12,211.31a12.33,12.33,0,0,1,4.79-5,13.48,13.48,0,0,1,6.92-1.78,12.67,12.67,0,0,1,6.93,1.85,10.76,10.76,0,0,1,4.19,4.74V204.9h3.61V233H925v-6.23a11.26,11.26,0,0,1-4.24,4.77,12.51,12.51,0,0,1-6.93,1.87,13.29,13.29,0,0,1-6.87-1.8,12.52,12.52,0,0,1-4.79-5.09,16.21,16.21,0,0,1-1.72-7.62A16,16,0,0,1,902.12,211.31ZM923.56,213a9.85,9.85,0,0,0-3.78-4,10.29,10.29,0,0,0-5.28-1.39,10.7,10.7,0,0,0-5.35,1.34,9.4,9.4,0,0,0-3.73,3.89,12.6,12.6,0,0,0-1.37,6,12.78,12.78,0,0,0,1.37,6,9.49,9.49,0,0,0,3.73,4,10.51,10.51,0,0,0,5.35,1.36,10.29,10.29,0,0,0,5.28-1.39,9.76,9.76,0,0,0,3.78-4,13.52,13.52,0,0,0,0-11.94Z"/><path class="cls-1" d="M942.36,194.91V233h-3.61v-38.1Z"/><path class="cls-1" d="M957.18,207.94v17.45c0,1.72.33,2.9,1,3.55a4.77,4.77,0,0,0,3.45,1h3.3V233h-3.86c-2.55,0-4.43-.59-5.67-1.77s-1.85-3.14-1.85-5.85V207.94h-3.91v-3h3.91v-7.05h3.65v7.05h7.73v3Z"/><path class="cls-1" d="M996,204.9l-16.68,41.34h-3.76L981,232.86l-11.53-28h4l9.58,24,9.26-24Z"/><polygon class="cls-1" points="414.25 55.3 336 55.3 194.09 160.69 194.09 241.04 151.3 241.04 151.3 135.65 223.47 82.95 184.69 57.39 42.78 160.69 42.78 241.04 0 241.04 0 135.65 185.74 0 260.55 55.85 337.04 0 414.25 55.3"/></svg>